<svg xmlns="http://www.w3.org/2000/svg" version="1.1" xmlns:xlink="http://www.w3.org/1999/xlink" xmlns:svgjs="http://svgjs.dev/svgjs" width="100%" height="100%" viewBox="0 0 1000 600"><rect width="1000" height="600" x="0" y="0" fill="#aa96da"/><g><circle r="166.66666666666666" cx="313.59340922037757" cy="335.81561223606144" fill="#c5fad5" transform="matrix(0.8507640848778415,0,0,0.8507640848778415,0,14.300112147737622)"/><path d="M259.7143667488471 410.8156284491688L259.7143667488471 410.8156284491688Q259.7143667488471 407.7307170641734 259.92817248840123 405.4093976061572Q260.17252190503456 403.1186218252201 260.8139391236969 401.3470885546287L260.8139391236969 401.3470885546287Q266.7699561541334 400.9194770755204 270.06867327868287 399.27011851324573Q273.3673904032323 397.620759950971 274.68076851763624 393.5279072223634Q275.99414663204016 389.46559817083494 275.99414663204016 382.2267467030737L275.99414663204016 382.2267467030737L275.99414663204016 289.40451205950194Q275.99414663204016 281.92131117510746 274.68076851763624 277.9811768318956Q273.3673904032323 274.01049881160463 270.06867327868287 272.26950921809237Q266.7699561541334 270.49797594750106 260.8139391236969 270.2841702079469L260.8139391236969 270.2841702079469Q260.17252190503456 268.5126369373555 259.92817248840123 266.0996864481018Q259.7143667488471 263.68673595884803 259.7143667488471 260.81563031340687L259.7143667488471 260.81563031340687Q268.2971400080915 261.27378546959426 276.33012707991094 261.36541650083177Q284.36311415173043 261.4875912091484 289.6166266093462 261.4875912091484L289.6166266093462 261.4875912091484Q292.7015379943415 261.4875912091484 298.3215745769072 261.36541650083177Q303.9110674823937 261.27378546959426 309.40892935664283 261.15161076127765Q314.9067912308919 261.029436052961 317.5640911367789 261.029436052961L317.5640911367789 261.029436052961Q335.7986663530383 261.029436052961 346.7943901015364 266.9854530833975Q357.7901138500346 272.91092643675483 362.6465585056212 282.593272070849Q367.47245948412876 292.2756177049431 367.47245948412876 303.69895293254956L367.47245948412876 303.69895293254956Q367.47245948412876 316.2524042120849 361.8829665786422 327.8895451792454Q356.2629299960765 339.55722982348505 345.2672062475784 347.04043070787964Q334.27148249908026 354.493087915195 317.5640911367789 354.493087915195L317.5640911367789 354.493087915195Q308.309356981793 354.493087915195 302.17007788888156 352.0801374259413L302.17007788888156 352.0801374259413Q301.7119227326941 349.6671869366876 301.7119227326941 347.4680421869879Q301.7119227326941 345.2688974372883 302.3838836284357 343.0697526875887L302.3838836284357 343.0697526875887Q305.25498927387684 343.74171358333024 308.09555124223886 344.04715035412187Q310.96665688768 344.3831308019926 314.05156827267535 344.3831308019926L314.05156827267535 344.3831308019926Q322.1761863757323 344.3831308019926 329.20123210393945 341.5425688336305Q336.25682150922574 338.67146318818936 340.655111008625 331.3104370121115Q345.0534005080242 323.9494108360336 345.0534005080242 310.08258144209435L345.0534005080242 310.08258144209435Q345.0534005080242 292.48942344449733 336.3484525404632 281.61587440431583Q327.67404824998135 270.7117816870552 307.88174550268474 270.7117816870552L307.88174550268474 270.7117816870552Q305.46879501343096 270.7117816870552 302.261708920119 271.04776213492596Q299.0851665038862 271.3837425827967 293.37349889008306 272.6971206972007L293.37349889008306 272.6971206972007L296.67221601463245 269.3984035726512L296.67221601463245 377.82845720367436Q296.67221601463245 387.2664534211352 298.657555024778 392.2145291079594Q300.6123503578443 397.16260479478353 305.0106398572436 399.0257690966124Q309.40892935664283 400.9194770755204 316.25071302237495 401.3470885546287L316.25071302237495 401.3470885546287Q316.89213024103736 403.1186218252201 317.1059359805915 405.4093976061572Q317.3502853972248 407.7307170641734 317.3502853972248 410.8156284491688L317.3502853972248 410.8156284491688Q314.05156827267535 410.5712790325355 309.53110406495944 410.47964800129796Q305.0106398572436 410.35747329298135 299.9709331391819 410.26584226174384Q294.9006827440411 410.14366755342724 289.6166266093462 410.14366755342724L289.6166266093462 410.14366755342724Q284.57691989128455 410.14366755342724 278.62090286084805 410.26584226174384Q272.69542950749076 410.35747329298135 267.62517911234994 410.47964800129796Q262.58547239428833 410.5712790325355 259.7143667488471 410.8156284491688Z " fill="#aa96da" transform="matrix(0.8507640848778415,0,0,0.8507640848778415,0,14.300112147737622)"/><path d="M563.5934141813875 409.58165419940246L563.5934141813875 409.58165419940246Q563.5934141813875 406.6832421337201 563.7942942255438 404.5022587971672Q564.0238714188652 402.34997260977934 564.6265115513338 400.68553795819946L564.6265115513338 400.68553795819946Q570.222455638542 400.283777869887 573.3217477483805 398.7341318149678Q576.421039858219 397.1844857600486 577.6550172723214 393.33906777191567Q578.8889946864238 389.5223469329479 578.8889946864238 382.72112258080233L578.8889946864238 382.72112258080233L578.8889946864238 295.5104862678477Q578.8889946864238 288.47968472238085 577.6550172723214 284.7777524800738Q576.421039858219 281.04712308860155 573.3217477483805 279.41138558618684Q570.222455638542 277.7469509346069 564.6265115513338 277.54607089045066L564.6265115513338 277.54607089045066Q564.0238714188652 275.8816362388708 563.7942942255438 273.61456145482225Q563.5934141813875 271.3474866707737 563.5934141813875 268.64995464924766L563.5934141813875 268.64995464924766Q571.6573130968006 269.0804118867253 579.2046633272406 269.1665033342208Q586.7520135576806 269.2812919308815 591.68792321409 269.2812919308815L591.68792321409 269.2812919308815Q594.5863352797722 269.2812919308815 599.8666107261638 269.1665033342208Q605.11818902339 269.0804118867253 610.2836758731207 268.96562329006457Q615.4491627228515 268.8508346934039 617.9458147002215 268.8508346934039L617.9458147002215 268.8508346934039Q635.0780127518285 268.8508346934039 645.40898645129 274.44677878061225Q655.7399601507516 280.0140257186554 660.3028068680138 289.1110220040146Q664.8369564361109 298.20801828937385 664.8369564361109 308.94075207714775L664.8369564361109 308.94075207714775Q664.8369564361109 320.7352803840331 659.5853781388845 331.6688942159632Q654.3051026924932 342.63120519705853 643.9741289930315 349.66200674252536Q633.64315529357 356.66411113882714 617.9458147002215 356.66411113882714L617.9458147002215 356.66411113882714Q609.2505785031747 356.66411113882714 603.4824515209752 354.3970363547786L603.4824515209752 354.3970363547786Q603.0519942834976 352.1299615707301 603.0519942834976 350.06376683083784Q603.0519942834976 347.9975720909455 603.6833315651314 345.93137735105313L603.6833315651314 345.93137735105313Q606.3808635866576 346.56271463268695 609.0496984590184 346.84968612433863Q611.7472304805444 347.1653547651555 614.6456425462268 347.1653547651555L614.6456425462268 347.1653547651555Q622.2790842241623 347.1653547651555 628.8794285321516 344.4965198927946Q635.5084699893061 341.79898787126854 639.6408594690906 334.8829749224624Q643.7732489488753 327.9669619736561 643.7732489488753 314.9384562526685L643.7732489488753 314.9384562526685Q643.7732489488753 298.40889833353003 635.5945614368015 288.19271323072917Q627.444571073893 277.94783097876314 608.8488184148623 277.94783097876314L608.8488184148623 277.94783097876314Q606.5817436308137 277.94783097876314 603.5685429684708 278.26349961958Q600.584039455293 278.57916826039684 595.2176725614061 279.8131456744992L595.2176725614061 279.8131456744992L598.3169646712445 276.7138535646608L598.3169646712445 378.58873310101774Q598.3169646712445 387.4561521930556 600.1822793669805 392.1050903578133Q602.0188969135515 396.75402852257093 606.1512863933361 398.50455462164643Q610.2836758731207 400.283777869887 616.7118372861191 400.68553795819946L616.7118372861191 400.68553795819946Q617.3144774185877 402.34997260977934 617.5153574627439 404.5022587971672Q617.7449346560652 406.6832421337201 617.7449346560652 409.58165419940246L617.7449346560652 409.58165419940246Q614.6456425462268 409.352077006081 610.3984644697814 409.2659855585855Q606.1512863933361 409.1511969619248 601.4162567810829 409.0651055144293Q596.6525300196645 408.95031691776865 591.68792321409 408.95031691776865L591.68792321409 408.95031691776865Q586.9528936018368 408.95031691776865 581.3569495146285 409.0651055144293Q575.7897025765852 409.1511969619248 571.0259758151669 409.2659855585855Q566.2909462029136 409.352077006081 563.5934141813875 409.58165419940246ZM718.5580196733109 409.78253424355864L718.5580196733109 409.78253424355864Q704.7259937756986 409.78253424355864 696.8629749044416 401.7186353281455Q689.02865318235 393.6547364127325 689.02865318235 372.99278901380944L689.02865318235 372.99278901380944L689.02865318235 341.79898787126854Q689.02865318235 334.5673062816454 686.9624584424577 330.95146548683385Q684.8962637025653 327.3356246920224 675.3688101797285 327.1347446478661L675.3688101797285 327.1347446478661Q675.3688101797285 324.8676698638177 675.6844788205455 323.088446615577Q676.0001474613624 321.33792051650164 676.8323647871524 319.47260582076547L676.8323647871524 319.47260582076547Q683.2318290509855 319.0708457324531 690.7791792814254 317.00465099256076Q698.3265295118655 314.9384562526685 703.0615591241186 312.4705014244638L703.0615591241186 312.4705014244638Q704.9268738198547 313.07314155693234 706.2756398306177 315.0532448493292Q707.6244058413807 317.00465099256076 707.6244058413807 321.5388005606578L707.6244058413807 321.5388005606578L707.6244058413807 368.4586394457124Q707.6244058413807 382.2906653433248 711.4411266803485 389.7232269771041Q715.2578475193162 397.1844857600486 724.7566038929878 397.1844857600486L724.7566038929878 397.1844857600486Q735.0875775924495 397.1844857600486 742.0035905412557 388.48924956300175Q748.9483006392271 379.8227105151201 748.9483006392271 361.8295979885579L748.9483006392271 361.8295979885579L748.9483006392271 340.76589050132236Q748.9483006392271 333.53420891169935 746.3655572143617 329.9183681168878Q743.7828137894961 326.30252732207623 733.4518400900346 326.10164727792005L733.4518400900346 326.10164727792005Q733.4518400900346 323.8345724938715 733.6527201341909 322.05534924563085Q733.8536001783472 320.30482314655546 734.8866975482932 318.4395084508194L734.8866975482932 318.4395084508194Q742.9505964637063 318.03774836250693 750.6988267383025 316.28722226343154Q758.4470570128987 314.53669616435616 762.9812065809957 312.4705014244638L762.9812065809957 312.4705014244638Q764.8465212767318 313.07314155693234 766.1952872874948 315.0532448493292Q767.5440532982578 317.00465099256076 767.5440532982578 321.5388005606578L767.5440532982578 321.5388005606578L767.5440532982578 381.4584480175348L751.4162554674318 389.12058684463557Q750.3831580974855 391.78942171699634 748.5178434017495 394.37216514186184Q746.6525287060134 396.9549085667272 744.3854539219648 399.2506804999408L744.3854539219648 399.2506804999408Q739.0190870280779 404.6170473938279 733.0213828525572 407.19979081869326Q727.0236786770364 409.78253424355864 718.5580196733109 409.78253424355864ZM755.5486449472163 410.8156316135048L755.5486449472163 410.8156316135048Q753.482450207324 409.78253424355864 751.9328041524049 407.8024309511618Q750.3831580974855 405.85102480793023 750.3831580974855 398.8202232624633L750.3831580974855 398.8202232624633Q750.3831580974855 396.55314847841476 750.6988267383025 392.42075899863016Q751.0144953791192 388.28836951884557 752.4493528373779 380.85580788506627L752.4493528373779 380.85580788506627L767.5440532982578 380.85580788506627Q767.5440532982578 385.5908374973195 768.3475734748826 388.8049182038186Q769.1797908006725 392.0189989103178 771.9634142696942 393.45385636857634Q774.775734887881 394.8887138268349 780.3429818259241 394.8887138268349L780.3429818259241 394.8887138268349Q780.3429818259241 396.9549085667272 780.1421017817678 399.5376519915926Q779.9412217376117 402.120395416458 779.1090044118217 404.4161673496716L779.1090044118217 404.4161673496716Q773.943517562091 404.6170473938279 767.1135960607802 406.36757349290326Q760.3123717086347 408.11809959197865 755.5486449472163 410.8156316135048ZM796.0403224192727 409.58165419940246L796.0403224192727 409.58165419940246Q796.0403224192727 407.5154594595101 796.2412024634287 405.1335960788009Q796.4707796567501 402.7517326980917 797.0734197892187 400.68553795819946L797.0734197892187 400.68553795819946Q805.3381987487879 400.68553795819946 808.351399411131 396.8688171192316Q811.3359029243087 393.05209628026387 811.3359029243087 382.72112258080233L811.3359029243087 382.72112258080233L811.3359029243087 290.14411937396073Q811.3359029243087 285.17951256838614 810.4175941510233 281.9941290110522Q809.4705882285726 278.780048304553 806.1704160745779 277.11561365297314Q802.8702439205832 275.4798761505584 795.8394423751164 275.4798761505584L795.8394423751164 275.4798761505584Q795.8394423751164 273.2128013665099 796.2412024634287 271.3474866707737Q796.6716597009064 269.48217197503766 797.7047570708525 267.8177373234578L797.7047570708525 267.8177373234578Q800.8040491806911 267.8177373234578 806.4860847153949 266.7846399535116Q812.1681202500987 265.7515425835654 817.5344871439858 264.1158050811507Q822.9008540378726 262.4513704295708 825.3975060152426 260.815632927156L825.3975060152426 260.815632927156Q827.2341235618136 261.41827305962465 828.5828895725766 263.2835877553607Q829.9316555833396 265.14890245109683 829.9316555833396 269.0804118867253L829.9316555833396 269.0804118867253L829.9316555833396 382.72112258080233Q829.9316555833396 393.05209628026387 832.7152790523611 396.8688171192316Q835.4989025213828 400.68553795819946 842.1279439785372 400.68553795819946L842.1279439785372 400.68553795819946Q842.7305841110059 402.7517326980917 842.9601613043272 405.44926471961776Q843.1610413484833 408.11809959197865 843.1610413484833 409.58165419940246L843.1610413484833 409.58165419940246Q839.6312920011673 409.352077006081 835.7284797147041 409.2659855585855Q831.7969702790757 409.1511969619248 827.7506722467866 409.0651055144293Q823.7330713636626 408.95031691776865 819.8015619280342 408.95031691776865L819.8015619280342 408.95031691776865Q815.8700524924058 408.95031691776865 811.6515715651257 409.0651055144293Q807.4043934886803 409.1511969619248 803.4728840530519 409.2659855585855Q799.5700717665887 409.352077006081 796.0403224192727 409.58165419940246ZM923.7426362042835 319.7021830140869L923.7426362042835 319.7021830140869Q923.5417561601274 324.63809267049635 923.4269675634665 330.23403675770464Q923.3121789668058 335.80128369574777 924.1443962925958 341.16765058963483L924.1443962925958 341.16765058963483Q922.0782015527035 342.43032515290236 919.4093666803427 343.0329652853709Q916.7118346588167 343.6643025670047 913.8134225931343 343.6643025670047L913.8134225931343 343.6643025670047Q913.411662504822 337.8674784356401 910.3984618424789 332.70199158590935Q907.4139583293012 327.5365047361786 902.4493515237267 324.2363325821839Q897.484744718152 320.9361604281893 890.6835203660065 320.9361604281893L890.6835203660065 320.9361604281893Q884.2840561021734 320.9361604281893 880.4386381140406 324.0354525380277Q876.6219172750729 327.1347446478661 876.6219172750729 332.300231497597L876.6219172750729 332.300231497597Q876.6219172750729 335.80128369574777 878.171563329992 338.4988157172738Q879.7212093849113 341.16765058963483 885.0014848313027 344.18085125197774Q890.2530631285289 347.1653547651555 901.2153741096243 351.49862428909637L901.2153741096243 351.49862428909637Q912.3785651348759 355.63101376888096 918.778029398709 359.76340324866555Q925.1774936625421 363.89579272845026 927.8750256840682 369.06127957818103Q930.543860556429 374.2267664279118 930.543860556429 381.68802521085627L930.543860556429 381.68802521085627Q930.543860556429 390.3545642587378 925.6079509000198 396.9549085667272Q920.6433440944451 403.5839500238817 912.0628964940589 407.19979081869326Q903.4824488936728 410.8156316135048 892.7497151058989 410.8156316135048L892.7497151058989 410.8156316135048Q880.352546666545 410.8156316135048 873.0060764802612 408.835528321108Q865.6883034431427 406.8841221778763 858.6575018976756 403.15349278640406L858.6575018976756 403.15349278640406Q859.0592619859882 399.85332063240946 859.1740505826489 395.1182910201562Q859.2601420301443 390.3545642587378 859.2601420301443 385.5908374973195Q859.2601420301443 380.85580788506627 858.8583819418319 377.55563573107156L858.8583819418319 377.55563573107156Q860.5228165934119 376.29296116780404 863.5073201065896 375.776412482831Q866.4918236197674 375.25986379785786 869.5911157296058 375.25986379785786L869.5911157296058 375.25986379785786Q871.2555503811858 388.28836951884557 877.6550146450189 394.6878337826787Q884.054478908852 401.0872980465118 894.8159098457912 401.0872980465118L894.8159098457912 401.0872980465118Q903.2815688495167 401.0872980465118 907.9305070142742 397.38536580420475Q912.579445179032 393.6547364127325 912.579445179032 387.8866094305331L912.579445179032 387.8866094305331Q912.579445179032 384.155980039061 910.8289190799566 381.4584480175348Q909.0783929808812 378.7896131451739 904.3146662194628 376.09208112364786Q899.5509394580444 373.42324625128697 890.2530631285289 369.69261685981473L890.2530631285289 369.69261685981473Q879.1185692524426 365.1584672917178 872.4034363477925 361.22695785608937Q865.6883034431427 357.29544842046084 862.6751027807996 351.9290815265739Q859.6905992676219 346.56271463268695 859.6905992676219 338.29793567311765L859.6905992676219 338.29793567311765Q859.6905992676219 331.6688942159632 862.9907714216166 326.81907600704926Q866.2909435756113 321.96925779813535 871.5712190220028 318.75517709163626Q876.8227973192289 315.5697935343022 882.8205014947497 314.020147479383Q888.8182056702705 312.4705014244638 893.9836925200012 312.4705014244638L893.9836925200012 312.4705014244638Q903.2815688495167 312.4705014244638 910.3123703949835 314.3071189710347Q917.3431719404504 316.17243366677087 923.7426362042835 319.7021830140869ZM990.8939652507837 410.8156316135048L990.8939652507837 410.8156316135048Q976.2297220273812 410.8156316135048 966.5013884603883 404.18659015635023Q956.8017520425605 397.58624584836093 951.9519338336466 386.3369633756139Q947.0734184755676 375.0589837537017 947.0734184755676 361.6287179444017L947.0734184755676 361.6287179444017Q947.0734184755676 348.39933217925784 952.2389053252983 337.2648383031715Q957.4043921750291 326.10164727792005 967.0179371453613 319.2717257766093Q976.6314821156938 312.4705014244638 989.8608678808374 312.4705014244638L989.8608678808374 312.4705014244638Q1003.2911336901376 312.4705014244638 1011.4411240530461 318.2386284066631Q1019.6198115651199 324.0354525380277 1023.6374124482437 333.73508895585553Q1027.6550133313676 343.4634225228484 1028.4872306571574 355.2292536805686L1028.4872306571574 355.2292536805686Q1027.6550133313676 359.3616431603532 1025.3879385473192 362.26005522603543L1025.3879385473192 362.26005522603543Q1021.8868863491683 362.26005522603543 1014.8560848037015 362.26005522603543Q1007.8252832582347 362.26005522603543 998.9578641661966 362.34614667353094Q990.0617479249937 362.4609352701916 980.7638715954782 362.77660391100846Q971.465995265963 363.09227255182543 963.2012163063936 363.4940326401378L963.2012163063936 363.4940326401378L963.2012163063936 352.9621788965201L1006.9930659324444 352.9621788965201Q1006.9930659324444 339.3310330430638 1002.0571562760352 330.8366768901732Q997.0925494704605 322.3710178864478 987.9955531851014 322.3710178864478L987.9955531851014 322.3710178864478Q983.0309463795269 322.3710178864478 978.2959167672735 325.3842185487907Q973.5321900058551 328.3687220619686 970.4328978960167 335.91607229240844Q967.3336057861783 343.4634225228484 967.3336057861783 357.29544842046084L967.3336057861783 357.29544842046084Q967.3336057861783 367.4255420757662 969.9163492110437 377.03908704609853Q972.499092635909 386.6239348672656 979.0133454964028 392.9373076836032Q985.5275983568966 399.2506804999408 997.4943095587729 399.2506804999408L997.4943095587729 399.2506804999408Q1004.3242310600837 399.2506804999408 1010.9245753680731 396.1513883901024Q1017.5536168252276 393.05209628026387 1022.7191036749583 387.2552721488994L1022.7191036749583 387.2552721488994Q1024.3548411773731 388.0874894746894 1025.9044872322925 390.03889561792096Q1027.4541332872113 392.0189989103178 1027.6550133313676 393.6547364127325L1027.6550133313676 393.6547364127325Q1020.652908935066 402.9526127422479 1011.4411240530461 406.8841221778763Q1002.2580363201913 410.8156316135048 990.8939652507837 410.8156316135048Z " fill="#c5fad5" transform="matrix(0.8507640848778415,0,0,0.8507640848778415,0,14.300112147737622)"/></g></svg>